<mxfile host="app.diagrams.net" modified="2020-12-05T07:41:06.706Z" agent="5.0 (Windows NT 10.0; Win64; x64) AppleWebKit/537.36 (KHTML, like Gecko) Chrome/87.0.4280.88 Safari/537.36" etag="9Clx_2stJbUkb20mcRJm" version="13.10.8" type="github">
  <diagram id="C5RBs43oDa-KdzZeNtuy" name="Page-1">
    <mxGraphModel dx="831" dy="565" grid="1" gridSize="10" guides="1" tooltips="1" connect="1" arrows="1" fold="1" page="1" pageScale="1" pageWidth="827" pageHeight="1169" math="0" shadow="0">
      <root>
        <mxCell id="WIyWlLk6GJQsqaUBKTNV-0" />
        <mxCell id="WIyWlLk6GJQsqaUBKTNV-1" parent="WIyWlLk6GJQsqaUBKTNV-0" />
        <mxCell id="MxyfuENbYduMKJOF5cX6-17" value="Process Commit Operation" style="rounded=1;whiteSpace=wrap;html=1;fontSize=24;glass=0;strokeWidth=1;shadow=0;fontStyle=1" parent="WIyWlLk6GJQsqaUBKTNV-1" vertex="1">
          <mxGeometry x="80" y="40" width="690" height="40" as="geometry" />
        </mxCell>
        <mxCell id="MxyfuENbYduMKJOF5cX6-45" value="&amp;nbsp;Op&amp;nbsp; &amp;nbsp; &amp;nbsp;= one individual operation from H&amp;nbsp; &amp;nbsp; &amp;nbsp; &amp;nbsp; &amp;nbsp; &amp;nbsp; &amp;nbsp; &amp;nbsp; &amp;nbsp; &amp;nbsp; &amp;nbsp; &amp;nbsp;Q&amp;nbsp; &amp;nbsp; &amp;nbsp; &amp;nbsp; = Receiving FIFO queue&lt;br&gt;&amp;nbsp;&lt;span style=&quot;text-align: center ; font-size: 12px&quot;&gt;&lt;font style=&quot;font-size: 12px&quot;&gt;T&amp;nbsp; &amp;nbsp; &amp;nbsp; &amp;nbsp; &amp;nbsp;= Transaction&amp;nbsp; &amp;nbsp; &amp;nbsp; &amp;nbsp; &amp;nbsp; &amp;nbsp; &amp;nbsp; &amp;nbsp; &amp;nbsp; &amp;nbsp; &amp;nbsp; &amp;nbsp; &amp;nbsp; &amp;nbsp; &amp;nbsp; &amp;nbsp; &amp;nbsp; &amp;nbsp; &amp;nbsp; &amp;nbsp; &amp;nbsp; &amp;nbsp; &amp;nbsp; &amp;nbsp; &amp;nbsp; &amp;nbsp; &amp;nbsp; &amp;nbsp; &amp;nbsp; &amp;nbsp; &amp;nbsp; &amp;nbsp; &amp;nbsp; &amp;nbsp;DMLog = Data Manager Log&lt;br&gt;&amp;nbsp;Ttbl&amp;nbsp; &amp;nbsp; &amp;nbsp;= Transaction Table&lt;br&gt;&lt;/font&gt;&lt;/span&gt;" style="text;html=1;align=left;verticalAlign=top;whiteSpace=wrap;rounded=1;fontSize=14;labelBorderColor=none;spacingTop=2;spacingLeft=0;spacingBottom=0;spacingRight=0;spacing=2;perimeterSpacing=0;strokeWidth=1;labelPadding=-1;fillColor=#f5f5f5;strokeColor=#666666;fontColor=#333333;" parent="WIyWlLk6GJQsqaUBKTNV-1" vertex="1">
          <mxGeometry x="80" y="100" width="690" height="70" as="geometry" />
        </mxCell>
        <mxCell id="b_4wLnTa9Ot5EjCLIlPe-1" value="B" style="verticalLabelPosition=middle;verticalAlign=middle;html=1;shape=offPageConnector;rounded=0;size=0.5;labelPosition=center;align=center;fontSize=20;fontStyle=1" parent="WIyWlLk6GJQsqaUBKTNV-1" vertex="1">
          <mxGeometry x="349" y="240" width="60" height="60" as="geometry" />
        </mxCell>
        <mxCell id="qo1OykcfbqTkCwCpk8gJ-8" value="No" style="edgeStyle=orthogonalEdgeStyle;rounded=0;orthogonalLoop=1;jettySize=auto;html=1;exitX=0;exitY=0.5;exitDx=0;exitDy=0;entryX=0.5;entryY=0;entryDx=0;entryDy=0;strokeWidth=1;" edge="1" parent="WIyWlLk6GJQsqaUBKTNV-1" source="P3ikQWSBlR8Jcj2DVICu-0" target="qo1OykcfbqTkCwCpk8gJ-5">
          <mxGeometry relative="1" as="geometry" />
        </mxCell>
        <mxCell id="P3ikQWSBlR8Jcj2DVICu-0" value="Is T marked &lt;br&gt;for Restart??" style="rhombus;whiteSpace=wrap;html=1;container=0;" parent="WIyWlLk6GJQsqaUBKTNV-1" vertex="1">
          <mxGeometry x="320" y="325" width="118" height="70" as="geometry" />
        </mxCell>
        <mxCell id="P3ikQWSBlR8Jcj2DVICu-1" style="edgeStyle=orthogonalEdgeStyle;rounded=0;orthogonalLoop=1;jettySize=auto;html=1;entryX=0.5;entryY=0;entryDx=0;entryDy=0;exitX=0.5;exitY=1;exitDx=0;exitDy=0;" parent="WIyWlLk6GJQsqaUBKTNV-1" source="b_4wLnTa9Ot5EjCLIlPe-1" target="P3ikQWSBlR8Jcj2DVICu-0" edge="1">
          <mxGeometry x="310" y="285" as="geometry">
            <mxPoint x="403" y="305" as="sourcePoint" />
            <mxPoint x="403" y="435" as="targetPoint" />
            <Array as="points" />
          </mxGeometry>
        </mxCell>
        <mxCell id="qo1OykcfbqTkCwCpk8gJ-3" style="edgeStyle=orthogonalEdgeStyle;rounded=0;orthogonalLoop=1;jettySize=auto;html=1;exitX=0.5;exitY=1;exitDx=0;exitDy=0;strokeWidth=1;" edge="1" parent="WIyWlLk6GJQsqaUBKTNV-1" source="P3ikQWSBlR8Jcj2DVICu-2" target="qo1OykcfbqTkCwCpk8gJ-0">
          <mxGeometry relative="1" as="geometry" />
        </mxCell>
        <mxCell id="P3ikQWSBlR8Jcj2DVICu-2" value="Move Blocked Ops in Ttbl to the end of Q" style="rounded=1;whiteSpace=wrap;html=1;fontSize=12;glass=0;strokeWidth=1;shadow=0;container=0;" parent="WIyWlLk6GJQsqaUBKTNV-1" vertex="1">
          <mxGeometry x="460" y="410" width="120" height="50" as="geometry" />
        </mxCell>
        <mxCell id="P3ikQWSBlR8Jcj2DVICu-3" value="D" style="verticalLabelPosition=middle;verticalAlign=middle;html=1;shape=offPageConnector;rounded=0;size=0.5;labelPosition=center;align=center;fontSize=20;fontStyle=1" parent="WIyWlLk6GJQsqaUBKTNV-1" vertex="1">
          <mxGeometry x="359" y="770" width="60" height="60" as="geometry" />
        </mxCell>
        <mxCell id="P3ikQWSBlR8Jcj2DVICu-4" value="" style="endArrow=classic;html=1;exitX=1;exitY=0.5;exitDx=0;exitDy=0;entryX=0.5;entryY=0;entryDx=0;entryDy=0;edgeStyle=orthogonalEdgeStyle;strokeWidth=1;spacing=2;" parent="WIyWlLk6GJQsqaUBKTNV-1" source="P3ikQWSBlR8Jcj2DVICu-0" target="P3ikQWSBlR8Jcj2DVICu-2" edge="1">
          <mxGeometry x="310" y="285" as="geometry">
            <mxPoint x="413" y="515" as="sourcePoint" />
            <mxPoint x="413" y="555" as="targetPoint" />
            <Array as="points" />
          </mxGeometry>
        </mxCell>
        <mxCell id="P3ikQWSBlR8Jcj2DVICu-5" value="Yes" style="edgeLabel;resizable=0;html=1;align=center;verticalAlign=middle;container=0;" parent="P3ikQWSBlR8Jcj2DVICu-4" connectable="0" vertex="1">
          <mxGeometry relative="1" as="geometry" />
        </mxCell>
        <mxCell id="qo1OykcfbqTkCwCpk8gJ-4" style="edgeStyle=orthogonalEdgeStyle;rounded=0;orthogonalLoop=1;jettySize=auto;html=1;exitX=0.5;exitY=1;exitDx=0;exitDy=0;entryX=0.75;entryY=0;entryDx=0;entryDy=0;strokeWidth=1;" edge="1" parent="WIyWlLk6GJQsqaUBKTNV-1" source="qo1OykcfbqTkCwCpk8gJ-0" target="qo1OykcfbqTkCwCpk8gJ-1">
          <mxGeometry relative="1" as="geometry">
            <Array as="points">
              <mxPoint x="520" y="650" />
              <mxPoint x="419" y="650" />
            </Array>
          </mxGeometry>
        </mxCell>
        <mxCell id="qo1OykcfbqTkCwCpk8gJ-0" value="Remove T from Ttbl" style="rounded=1;whiteSpace=wrap;html=1;fontSize=12;glass=0;strokeWidth=1;shadow=0;container=0;" vertex="1" parent="WIyWlLk6GJQsqaUBKTNV-1">
          <mxGeometry x="460" y="490" width="120" height="50" as="geometry" />
        </mxCell>
        <mxCell id="qo1OykcfbqTkCwCpk8gJ-2" style="edgeStyle=orthogonalEdgeStyle;rounded=0;orthogonalLoop=1;jettySize=auto;html=1;exitX=0.5;exitY=1;exitDx=0;exitDy=0;entryX=0.5;entryY=0;entryDx=0;entryDy=0;strokeWidth=1;" edge="1" parent="WIyWlLk6GJQsqaUBKTNV-1" source="qo1OykcfbqTkCwCpk8gJ-1" target="P3ikQWSBlR8Jcj2DVICu-3">
          <mxGeometry relative="1" as="geometry" />
        </mxCell>
        <mxCell id="qo1OykcfbqTkCwCpk8gJ-1" value="Write Logs" style="rounded=1;whiteSpace=wrap;html=1;fontSize=12;glass=0;strokeWidth=1;shadow=0;container=0;" vertex="1" parent="WIyWlLk6GJQsqaUBKTNV-1">
          <mxGeometry x="329" y="680" width="120" height="50" as="geometry" />
        </mxCell>
        <mxCell id="qo1OykcfbqTkCwCpk8gJ-9" value="" style="edgeStyle=orthogonalEdgeStyle;rounded=0;orthogonalLoop=1;jettySize=auto;html=1;strokeWidth=1;entryX=0.5;entryY=0;entryDx=0;entryDy=0;" edge="1" parent="WIyWlLk6GJQsqaUBKTNV-1" source="qo1OykcfbqTkCwCpk8gJ-5" target="qo1OykcfbqTkCwCpk8gJ-6">
          <mxGeometry relative="1" as="geometry" />
        </mxCell>
        <mxCell id="qo1OykcfbqTkCwCpk8gJ-5" value="Change State to Committed in Ttbl" style="rounded=1;whiteSpace=wrap;html=1;fontSize=12;glass=0;strokeWidth=1;shadow=0;container=0;" vertex="1" parent="WIyWlLk6GJQsqaUBKTNV-1">
          <mxGeometry x="180" y="410" width="120" height="50" as="geometry" />
        </mxCell>
        <mxCell id="qo1OykcfbqTkCwCpk8gJ-10" style="edgeStyle=orthogonalEdgeStyle;rounded=0;orthogonalLoop=1;jettySize=auto;html=1;exitX=0.5;exitY=1;exitDx=0;exitDy=0;entryX=0.5;entryY=0;entryDx=0;entryDy=0;strokeWidth=1;" edge="1" parent="WIyWlLk6GJQsqaUBKTNV-1" source="qo1OykcfbqTkCwCpk8gJ-6" target="qo1OykcfbqTkCwCpk8gJ-7">
          <mxGeometry relative="1" as="geometry" />
        </mxCell>
        <mxCell id="qo1OykcfbqTkCwCpk8gJ-6" value="Add Active List Operations in Ttbl to DMLog" style="rounded=1;whiteSpace=wrap;html=1;fontSize=12;glass=0;strokeWidth=1;shadow=0;container=0;" vertex="1" parent="WIyWlLk6GJQsqaUBKTNV-1">
          <mxGeometry x="180" y="490" width="120" height="50" as="geometry" />
        </mxCell>
        <mxCell id="qo1OykcfbqTkCwCpk8gJ-11" style="edgeStyle=orthogonalEdgeStyle;rounded=0;orthogonalLoop=1;jettySize=auto;html=1;exitX=0.5;exitY=1;exitDx=0;exitDy=0;entryX=0.25;entryY=0;entryDx=0;entryDy=0;strokeWidth=1;" edge="1" parent="WIyWlLk6GJQsqaUBKTNV-1" source="qo1OykcfbqTkCwCpk8gJ-7" target="qo1OykcfbqTkCwCpk8gJ-1">
          <mxGeometry relative="1" as="geometry" />
        </mxCell>
        <mxCell id="qo1OykcfbqTkCwCpk8gJ-7" value="Unlock each Active List operations in Ttbl" style="rounded=1;whiteSpace=wrap;html=1;fontSize=12;glass=0;strokeWidth=1;shadow=0;container=0;" vertex="1" parent="WIyWlLk6GJQsqaUBKTNV-1">
          <mxGeometry x="180" y="570" width="120" height="50" as="geometry" />
        </mxCell>
      </root>
    </mxGraphModel>
  </diagram>
</mxfile>
